<?xml version="1.0" standalone="no"?>
<!DOCTYPE svg PUBLIC "-//W3C//DTD SVG 20010904//EN"
 "http://www.w3.org/TR/2001/REC-SVG-20010904/DTD/svg10.dtd">
<svg version="1.0" xmlns="http://www.w3.org/2000/svg"
 width="1000.000000pt" height="1000.000000pt" viewBox="0 0 1000.000000 1000.000000"
 preserveAspectRatio="xMidYMid meet">

<g transform="translate(0.000000,1000.000000) scale(0.100000,-0.100000)"
fill="#000000" stroke="none">
<path d="M6103 9059 c-51 -11 -168 -44 -260 -74 -165 -54 -170 -56 -278 -137
-60 -46 -169 -141 -242 -211 -73 -71 -137 -126 -143 -122 -6 3 -10 -3 -10 -17
0 -13 -15 -39 -33 -58 -204 -221 -448 -641 -617 -1065 -64 -161 -153 -420
-200 -585 -21 -74 -53 -187 -72 -250 l-33 -115 -65 -21 c-36 -12 -69 -18 -74
-13 -5 5 -8 298 -7 700 2 629 0 693 -14 710 -9 9 -23 15 -31 12 -12 -4 -14 15
-14 111 0 70 4 116 10 116 6 0 9 -36 9 -87 -1 -117 -1 -123 11 -123 7 0 9 90
8 263 l-3 262 -32 10 -33 9 0 148 c0 101 -3 148 -11 148 -7 0 -10 23 -9 68 2
37 2 73 1 80 -1 9 -30 12 -109 12 -69 0 -112 4 -120 12 -8 8 -16 5 -31 -13
-16 -19 -20 -39 -21 -96 0 -40 -5 -75 -11 -78 -7 -5 -10 -55 -8 -144 l2 -136
-26 -13 c-27 -13 -28 -42 0 -42 8 0 13 -6 10 -12 -2 -7 -9 -12 -15 -11 -17 4
-21 -43 -25 -274 -2 -128 -8 -217 -14 -225 -7 -9 -11 -123 -12 -328 0 -173 3
-306 8 -295 4 11 9 144 10 295 1 151 6 279 11 284 22 23 27 -14 24 -176 -4
-163 -15 -903 -15 -940 0 -10 1 -24 1 -30 3 -39 -12 -1485 -15 -1495 -3 -7 -9
-13 -15 -13 -8 0 -9 171 -5 583 7 783 8 1457 2 1463 -3 3 -8 -7 -11 -23 -6
-31 -16 -712 -25 -1718 l-6 -670 -25 -3 c-49 -7 -50 -12 -50 -224 0 -173 -2
-199 -16 -205 -9 -3 -19 -2 -23 3 -3 5 -26 10 -50 11 -26 1 -51 9 -60 19 -15
15 -11 16 47 10 l62 -7 0 30 c0 23 -4 29 -15 25 -10 -4 -15 0 -15 15 0 12 6
21 15 21 13 0 15 32 15 239 -1 205 -3 240 -16 245 -9 3 -20 4 -25 1 -9 -6 -10
-346 -1 -403 3 -23 9 -31 18 -28 8 3 14 -1 14 -8 0 -9 -13 -13 -37 -12 l-38 1
-2 380 c-2 333 0 378 13 361 8 -11 14 -33 14 -49 0 -20 6 -30 20 -34 26 -7 26
-19 -1 -26 -16 -4 -20 -12 -17 -34 2 -22 9 -29 30 -31 l28 -3 -2 121 c-2 124
-4 135 -25 135 -7 0 -13 5 -13 10 0 6 7 10 15 10 8 0 15 4 15 8 1 53 -1 57
-20 57 -11 0 -20 7 -20 15 0 9 9 15 25 15 23 0 25 4 25 40 l0 40 -40 0 c-33 0
-42 4 -52 25 -6 13 -19 27 -30 30 -19 7 -25 49 -8 60 16 10 12 23 -10 35 -15
8 -31 7 -60 -1 -43 -13 -66 -46 -72 -104 -3 -26 -8 -30 -35 -33 -35 -4 -40
-13 -45 -86 -3 -43 -26 -61 -35 -27 -5 20 -7 21 -24 5 -27 -25 -59 -10 -60 29
0 22 -3 27 -7 15 -11 -26 -32 -7 -39 35 -6 40 5 48 31 21 15 -14 16 -14 16 1
0 21 -43 39 -74 31 -19 -5 -26 -13 -26 -32 0 -26 -20 -40 -45 -30 -17 6 -10
33 10 38 11 2 11 6 1 20 -28 38 -51 -19 -33 -86 7 -25 6 -28 -12 -23 -11 2
-29 -1 -39 -9 -19 -13 -20 -11 -21 89 -8 606 -11 657 -35 657 -17 0 -56 -38
-56 -55 0 -7 5 -26 10 -41 9 -23 7 -33 -10 -56 -16 -21 -17 -28 -6 -28 25 0
29 -50 7 -74 -24 -26 -26 -36 -7 -36 24 0 27 -43 6 -72 -16 -21 -17 -28 -6
-28 25 0 29 -50 6 -82 -15 -21 -17 -28 -6 -28 20 0 30 -48 14 -68 -7 -10 -17
-20 -23 -24 -6 -5 -3 -8 7 -8 10 0 19 -11 23 -31 5 -24 2 -36 -16 -55 -19 -20
-20 -24 -6 -24 28 0 33 -47 8 -74 -26 -27 -26 -34 -3 -32 27 2 28 -51 1 -80
-18 -19 -19 -24 -7 -24 32 0 37 -52 8 -77 -21 -18 -28 -39 -9 -27 6 3 15 0 20
-7 15 -24 10 -52 -13 -77 -17 -19 -19 -24 -6 -19 34 12 39 -63 6 -86 -18 -13
-19 -16 -7 -16 33 -2 40 -64 9 -83 -23 -15 -27 -33 -5 -24 21 8 39 -38 25 -64
-5 -10 -15 -20 -22 -23 -9 -3 -8 -9 6 -19 23 -18 24 -68 2 -80 -15 -9 -15 -11
-3 -21 27 -21 30 -54 8 -76 -25 -25 -27 -33 -6 -25 20 8 31 -40 16 -72 -8 -19
-18 -24 -45 -24 -19 0 -38 5 -41 10 -8 13 -15 522 -20 1475 -2 473 -7 752 -14
774 -7 23 -7 48 0 79 6 30 6 49 0 55 -12 12 -95 -9 -111 -28 -7 -8 -9 -364 -6
-1099 l4 -1086 -33 0 c-19 0 -36 4 -39 8 -3 6 -19 2144 -16 2291 0 11 -3 12
-12 3 -8 -8 -11 -301 -11 -1147 1 -664 -3 -1137 -8 -1141 -5 -3 -9 137 -9 338
0 189 -2 678 -5 1088 -2 410 -5 769 -5 798 0 40 -3 52 -16 52 -13 0 -12 5 5
29 26 37 27 51 1 51 -25 0 -25 5 0 32 11 12 20 28 20 35 0 7 -9 13 -20 13 -25
0 -25 5 0 32 25 27 25 38 0 45 -19 5 -28 23 -12 23 8 0 32 43 32 55 0 3 -9 5
-20 5 -11 0 -20 4 -20 8 0 12 41 48 63 55 9 4 17 16 17 27 0 23 -18 27 -26 5
-4 -8 -17 -15 -31 -15 l-24 0 21 30 c12 17 28 30 35 30 8 0 20 10 26 23 7 12
17 25 23 29 7 5 6 13 -6 24 -16 16 -18 16 -27 -8 -5 -15 -24 -34 -41 -45 -55
-32 -73 -81 -71 -200 l2 -103 -44 -47 c-42 -45 -44 -51 -45 -110 -1 -35 -11
-90 -22 -123 -11 -32 -20 -75 -20 -94 0 -19 -4 -38 -10 -41 -5 -3 -10 -24 -10
-45 0 -33 -6 -44 -35 -67 -19 -15 -35 -34 -35 -40 0 -18 19 -16 26 2 6 16 34
21 34 7 0 -5 -11 -19 -25 -32 -17 -16 -25 -34 -25 -57 0 -19 -5 -43 -11 -55
-13 -25 -5 -35 16 -18 8 7 15 9 15 5 0 -4 -8 -13 -17 -20 -14 -11 -17 -37 -17
-204 -1 -178 0 -190 16 -185 23 7 23 -4 0 -29 -24 -27 -23 -154 2 -172 14 -11
15 -13 1 -19 -19 -7 -20 -46 0 -46 20 0 19 -17 -1 -28 -14 -8 -19 -103 -14
-294 0 -10 8 -18 18 -18 16 -1 16 -1 -1 -11 -21 -13 -22 -45 -1 -57 15 -8 15
-10 0 -15 -18 -7 -21 -38 -5 -54 8 -8 8 -13 0 -17 -19 -12 -12 -36 10 -36 12
0 19 -5 16 -12 -2 -7 -12 -12 -21 -12 -11 1 -16 -6 -16 -22 0 -15 6 -24 15
-24 19 0 19 -9 1 -24 -8 -6 -17 -28 -20 -48 -5 -30 -3 -41 14 -58 18 -18 18
-20 2 -20 -16 0 -17 -16 -20 -181 -2 -100 -7 -192 -12 -204 -6 -15 -19 -25
-37 -27 -34 -4 -53 -37 -53 -94 0 -37 3 -43 30 -54 17 -7 55 -28 86 -46 30
-18 61 -31 69 -27 10 3 15 -1 15 -13 0 -22 55 -84 73 -84 16 1 77 16 100 25
13 5 17 2 17 -14 0 -14 -6 -21 -20 -21 -13 0 -20 -7 -20 -20 0 -11 -9 -24 -20
-28 -14 -5 -17 -11 -10 -22 7 -11 14 -12 33 -3 14 7 28 9 31 6 12 -13 5 -32
-14 -38 -25 -8 -26 -29 0 -55 11 -11 19 -28 18 -37 -4 -38 14 -113 28 -113 8
0 14 -9 14 -20 0 -11 -4 -20 -10 -20 -5 0 -10 -11 -10 -25 0 -16 6 -25 15 -25
9 0 15 9 15 24 0 16 7 27 20 31 27 8 27 45 0 45 -25 0 -27 36 -2 48 9 5 45 12
79 15 58 6 63 5 63 -13 0 -13 -10 -24 -25 -30 -14 -5 -25 -14 -25 -19 0 -5 -3
-17 -7 -27 -5 -14 -2 -16 21 -10 39 10 48 -21 13 -46 -34 -25 -35 -48 -2 -48
34 0 34 -33 0 -48 -14 -6 -25 -16 -25 -22 0 -6 -10 -15 -22 -20 -19 -7 -14 -9
25 -9 51 -1 62 -16 22 -31 -14 -5 -28 -17 -31 -25 -7 -17 -49 -20 -59 -5 -4 6
-14 9 -23 8 -27 -5 -29 42 -3 49 27 7 27 23 1 23 -11 0 -20 -6 -20 -14 0 -8
-9 -18 -20 -21 -11 -3 -20 -15 -20 -25 0 -11 -8 -24 -19 -29 -10 -6 -21 -19
-23 -29 -4 -15 -1 -18 13 -15 22 6 26 -12 4 -21 -8 -3 -15 -12 -15 -19 0 -29
232 -37 372 -12 174 30 460 150 574 241 20 16 57 43 82 61 109 77 295 282 379
418 123 199 220 391 273 545 12 36 28 79 35 95 7 17 21 57 31 90 9 33 32 105
50 160 18 55 43 136 54 180 12 44 33 121 46 170 14 50 29 108 34 130 5 22 32
130 60 240 28 110 55 218 60 240 4 22 25 105 45 185 20 80 38 152 40 160 192
788 452 1410 765 1825 176 233 330 389 543 548 152 114 207 149 382 239 83 43
146 77 140 77 -5 0 -52 -9 -102 -20z m-2323 -340 c0 -36 -4 -49 -12 -46 -7 2
-13 9 -12 15 1 7 2 28 3 47 2 55 21 41 21 -16z m70 -4 c0 -33 -4 -45 -15 -45
-12 0 -14 9 -11 43 3 23 5 43 5 45 1 1 6 2 11 2 6 0 10 -20 10 -45z m67 3 c-3
-59 -27 -63 -27 -4 0 33 4 46 14 46 10 0 14 -12 13 -42z m-133 -261 c-2 -40
-3 -76 -4 -80 0 -5 -8 -7 -17 -5 -15 3 -18 15 -19 78 0 73 7 93 31 84 7 -3 10
-29 9 -77z m66 14 c0 -33 3 -66 6 -75 13 -33 24 -2 24 65 0 62 2 69 20 69 18
0 20 -7 20 -79 l0 -79 -52 2 -53 1 -1 70 c0 79 1 85 22 85 11 0 14 -14 14 -59z
m-142 -401 c-1 -239 -2 -260 -18 -260 -16 0 -17 19 -14 258 1 141 3 258 3 260
1 1 7 2 15 2 12 0 14 -42 14 -260z m70 0 c-1 -243 -2 -260 -19 -260 -16 0 -17
16 -14 258 1 141 3 258 4 260 0 1 8 2 16 2 12 0 14 -37 13 -260z m71 18 c0
-134 2 -251 6 -260 6 -15 2 -18 -22 -18 l-28 0 2 118 c1 64 2 181 2 260 1 136
2 142 21 142 20 0 20 -5 19 -242z m66 -18 c-1 -251 -1 -255 -21 -258 -21 -3
-21 -1 -19 255 1 142 3 259 4 261 0 2 9 2 19 0 16 -3 17 -23 17 -258z m69 215
c-1 -22 -2 -138 -3 -257 -1 -205 -2 -218 -19 -218 -18 0 -19 13 -17 233 3 309
2 289 22 285 13 -2 17 -13 17 -43z m46 -94 c0 -76 -4 -132 -10 -136 -6 -4 -10
42 -10 129 0 84 4 136 10 136 6 0 10 -50 10 -129z m-380 69 c0 -11 -4 -20 -9
-20 -14 0 -23 18 -16 30 10 17 25 11 25 -10z m-5 -93 c-2 -23 -4 -57 -4 -75
-1 -18 -5 -31 -10 -28 -4 3 -7 38 -6 78 3 84 2 81 14 74 5 -3 8 -25 6 -49z
m-5 -183 c0 -34 -4 -53 -10 -49 -18 11 -12 105 7 105 2 0 3 -25 3 -56z m0 -84
c0 -11 -4 -20 -10 -20 -5 0 -10 9 -10 20 0 11 5 20 10 20 6 0 10 -9 10 -20z
m0 -65 c0 -14 -4 -25 -10 -25 -5 0 -10 11 -10 25 0 14 5 25 10 25 6 0 10 -11
10 -25z m402 -821 c-3 -653 -9 -1182 -15 -1293 -1 -19 -7 -36 -14 -38 -9 -3
-11 174 -8 754 5 1186 6 1317 12 1326 3 4 10 6 16 4 9 -3 11 -192 9 -753z
m-338 703 c-3 -11 -6 -116 -5 -234 0 -198 -1 -214 -17 -211 -13 2 -17 14 -18
48 -1 25 3 51 9 58 6 8 5 17 -3 27 -8 10 -9 20 -3 28 5 6 8 77 6 157 -1 80 0
151 3 159 8 23 36 -8 28 -32z m68 31 c3 -7 4 -50 2 -94 -5 -138 -26 -2250 -24
-2471 1 -96 -1 -113 -15 -113 -12 0 -15 14 -15 75 0 43 4 75 10 75 6 0 10 5
10 11 0 5 -4 7 -10 4 -6 -4 -10 15 -10 49 0 34 5 57 13 60 10 5 10 7 0 12 -7
3 -13 14 -13 24 0 10 6 20 13 23 9 3 9 8 -2 21 -12 14 -12 22 -3 36 7 12 8 21
2 25 -14 9 -12 89 2 103 8 8 8 15 -2 27 -10 12 -10 18 0 30 10 12 10 18 1 29
-9 11 -9 20 -2 34 7 13 7 22 -1 30 -8 8 -8 15 2 27 10 13 11 21 3 34 -6 10 -8
24 -3 31 5 8 5 21 2 29 -4 9 -7 72 -6 141 1 69 2 431 4 805 1 374 7 688 11
697 5 9 5 19 1 22 -5 3 -7 27 -5 53 1 26 3 75 4 108 1 33 3 63 6 68 7 11 20 8
25 -5z m71 -23 c-5 -87 -13 -887 -14 -1420 -1 -335 -4 -616 -7 -622 -2 -7 -10
-13 -17 -13 -18 0 -20 160 -2 172 9 6 9 10 -2 17 -11 7 -12 45 -7 202 3 107 6
525 7 929 1 404 3 743 6 753 8 31 38 16 36 -18z m68 23 c1 -7 0 -17 -1 -23 -2
-5 -3 -78 -4 -162 -1 -83 -4 -155 -8 -158 -4 -4 -4 -15 0 -24 5 -9 7 -90 7
-181 -1 -91 -3 -480 -5 -865 -2 -385 -5 -706 -8 -712 -2 -7 -10 -13 -18 -13
-19 0 -20 220 -2 238 9 9 9 12 -1 12 -11 0 -12 34 -8 173 3 94 7 519 8 942 1
424 4 773 6 778 7 12 33 8 34 -5z m61 -844 c-3 -881 -8 -1283 -16 -1291 -3 -3
-9 -2 -15 1 -13 8 -13 894 0 902 5 3 5 13 -1 23 -5 11 -7 70 -5 137 3 66 5
333 6 594 1 261 4 479 6 483 3 4 10 6 16 4 9 -3 11 -216 9 -853z m-274 124 c0
-128 -3 -236 -5 -241 -3 -4 -5 -212 -5 -462 -1 -249 -5 -460 -9 -467 -16 -26
-21 4 -20 134 0 73 0 372 0 665 1 337 5 534 11 538 6 4 5 13 -3 26 -10 16 -9
21 3 29 8 5 18 10 22 10 4 0 7 -105 6 -232z m-1508 -68 c0 -5 -5 -10 -11 -10
-5 0 -7 5 -4 10 3 6 8 10 11 10 2 0 4 -4 4 -10z m316 -309 c-7 -11 -66 -20
-66 -10 0 7 24 14 58 18 7 0 11 -3 8 -8z m1734 -291 c-29 -19 -144 -50 -152
-42 -14 14 13 30 67 40 71 14 104 14 85 2z m-2120 -14 c0 -3 -4 -8 -10 -11 -5
-3 -10 -1 -10 4 0 6 5 11 10 11 6 0 10 -2 10 -4z m2075 -54 c-9 -8 -84 -32
-99 -32 -18 0 3 25 25 31 35 10 85 10 74 1z m-2175 -32 c0 -5 -4 -10 -10 -10
-5 0 -10 5 -10 10 0 6 5 10 10 10 6 0 10 -4 10 -10z m2118 -52 c-9 -7 -18 -22
-20 -32 -6 -36 -28 -30 -28 8 0 34 2 36 32 36 27 0 30 -2 16 -12z m-2108 -7
c0 -12 -20 -25 -27 -18 -7 7 6 27 18 27 5 0 9 -4 9 -9z m2080 -101 c0 -16 -4
-30 -10 -30 -5 0 -10 14 -10 30 0 17 5 30 10 30 6 0 10 -13 10 -30z m50 -64
c0 -3 -4 -8 -10 -11 -5 -3 -10 -1 -10 4 0 6 5 11 10 11 6 0 10 -2 10 -4z
m-2132 -48 c-6 -18 -28 -21 -28 -4 0 9 7 16 16 16 9 0 14 -5 12 -12z m2089
-65 c-18 -20 -23 -22 -25 -8 -6 27 5 44 27 38 19 -5 19 -5 -2 -30z m-2000 -85
c-3 -8 -6 -5 -6 6 -1 11 2 17 5 13 3 -3 4 -12 1 -19z m1565 -80 c2 -40 2 -211
0 -380 -2 -263 -5 -308 -17 -308 -12 0 -15 19 -15 105 0 77 3 105 13 105 9 0
9 2 0 8 -15 10 -15 220 0 240 6 8 6 12 -1 12 -12 0 -11 88 1 107 4 6 3 14 -2
17 -10 7 -8 86 3 104 4 7 2 19 -4 27 -6 8 -9 19 -5 25 15 25 24 5 27 -62z
m-1666 15 c-10 -10 -19 5 -10 18 6 11 8 11 12 0 2 -7 1 -15 -2 -18z m101 -85
c-3 -8 -6 -5 -6 6 -1 11 2 17 5 13 3 -3 4 -12 1 -19z m1704 -40 c0 -7 0 -137
-1 -288 -1 -200 -4 -277 -13 -282 -9 -6 -13 60 -15 275 -1 155 0 287 3 294 6
17 25 17 26 1z m199 -4 c0 -8 -4 -12 -10 -9 -5 3 -10 10 -10 16 0 5 5 9 10 9
6 0 10 -7 10 -16z m-129 -56 c0 -7 0 -71 -2 -143 -1 -71 -3 -156 -3 -187 -1
-32 -7 -63 -14 -70 -10 -10 -12 28 -12 200 1 177 4 212 16 212 8 0 14 -6 15
-12z m66 -40 c-3 -74 -27 -78 -27 -4 0 42 4 56 14 56 11 0 14 -13 13 -52z
m-658 -67 c11 -7 9 -10 -8 -16 -24 -7 -44 2 -36 16 8 11 26 11 44 0z m653 -33
c-15 -15 -26 -4 -18 18 5 13 9 15 18 6 9 -9 9 -15 0 -24z m-742 8 c0 -16 -37
-32 -48 -21 -7 7 25 35 40 35 4 0 8 -6 8 -14z m65 -26 c3 -5 -1 -10 -10 -10
-9 0 -13 5 -10 10 3 6 8 10 10 10 2 0 7 -4 10 -10z m-83 -25 c0 -5 -5 -11 -11
-13 -6 -2 -11 4 -11 13 0 9 5 15 11 13 6 -2 11 -8 11 -13z m754 -22 c-10 -10
-19 5 -10 18 6 11 8 11 12 0 2 -7 1 -15 -2 -18z m-666 -3 c0 -5 -4 -10 -10
-10 -5 0 -10 5 -10 10 0 6 5 10 10 10 6 0 10 -4 10 -10z m0 -44 c0 -3 -4 -8
-10 -11 -5 -3 -10 -1 -10 4 0 6 5 11 10 11 6 0 10 -2 10 -4z m670 -6 c0 -5 -4
-10 -10 -10 -5 0 -10 5 -10 10 0 6 5 10 10 10 6 0 10 -4 10 -10z m-750 -15 c0
-2 -9 -9 -20 -15 -16 -9 -20 -8 -20 5 0 8 9 15 20 15 11 0 20 -2 20 -5z m-10
-56 c0 -5 -7 -9 -15 -9 -15 0 -20 12 -9 23 8 8 24 -1 24 -14z m215 -9 c3 -5 1
-10 -4 -10 -6 0 -11 5 -11 10 0 6 2 10 4 10 3 0 8 -4 11 -10z m-125 -10 c0 -5
-4 -10 -9 -10 -6 0 -13 5 -16 10 -3 6 1 10 9 10 9 0 16 -4 16 -10z m-352 -37
c2 -9 -8 -13 -32 -13 -32 0 -44 8 -31 21 10 10 59 3 63 -8z m272 -27 c0 -2 -7
-6 -15 -10 -8 -3 -15 -1 -15 4 0 6 7 10 15 10 8 0 15 -2 15 -4z m680 -31 c0
-8 -4 -17 -10 -20 -6 -4 -10 5 -10 20 0 15 4 24 10 20 6 -3 10 -12 10 -20z
m-905 -137 c9 -205 2 -717 -10 -721 -7 -1 -11 148 -13 431 -1 253 2 432 7 432
5 0 12 -64 16 -142z m220 122 c3 -6 -1 -13 -10 -16 -19 -8 -30 0 -20 15 8 14
22 14 30 1z m-140 -20 c-3 -5 -10 -10 -16 -10 -5 0 -9 5 -9 10 0 6 7 10 16 10
8 0 12 -4 9 -10z m-135 -10 c0 -5 -2 -10 -4 -10 -3 0 -8 5 -11 10 -3 6 -1 10
4 10 6 0 11 -4 11 -10z m270 -14 c0 -3 -4 -8 -10 -11 -5 -3 -10 -1 -10 4 0 6
5 11 10 11 6 0 10 -2 10 -4z m420 -90 c0 -56 -4 -97 -11 -101 -17 -11 -19 -3
-20 86 -2 108 -2 109 16 109 12 0 15 -17 15 -94z m-720 60 c0 -3 -4 -8 -10
-11 -5 -3 -10 -1 -10 4 0 6 5 11 10 11 6 0 10 -2 10 -4z m430 -6 c0 -5 -16
-10 -35 -10 -19 0 -35 5 -35 10 0 6 16 10 35 10 19 0 35 -4 35 -10z m-100 -10
c0 -11 -12 -17 -44 -22 -25 -4 -33 19 -9 25 33 8 53 7 53 -3z m-100 -20 c0 -5
-4 -10 -10 -10 -5 0 -10 5 -10 10 0 6 5 10 10 10 6 0 10 -4 10 -10z m-190 -4
c0 -3 -4 -8 -10 -11 -5 -3 -10 -1 -10 4 0 6 5 11 10 11 6 0 10 -2 10 -4z m741
-104 c-6 -2 -11 -8 -11 -13 0 -6 5 -7 10 -4 6 4 10 -7 10 -24 0 -21 -5 -31
-15 -31 -19 0 -22 105 -2 114 10 5 10 7 0 12 -7 3 -13 14 -13 24 0 10 6 20 13
23 8 2 13 -12 15 -47 2 -29 -1 -52 -7 -54z m75 34 c-2 -40 -6 -79 -11 -85 -4
-7 -4 -22 -1 -34 3 -12 1 -29 -4 -37 -7 -10 -10 7 -10 55 -1 39 -2 92 -3 118
-3 51 -1 57 19 57 9 0 11 -20 10 -74z m69 64 c4 -6 2 -17 -4 -23 -5 -7 -8 -22
-5 -34 3 -11 1 -24 -5 -27 -7 -5 -11 10 -11 43 0 48 10 64 25 41z m-540 -10
c3 -5 -1 -10 -9 -10 -9 0 -16 5 -16 10 0 6 4 10 9 10 6 0 13 -4 16 -10z m-75
-110 c0 -5 -9 -10 -21 -10 -11 0 -17 5 -14 10 3 6 13 10 21 10 8 0 14 -4 14
-10z m597 -22 c-3 -8 -6 -5 -6 6 -1 11 2 17 5 13 3 -3 4 -12 1 -19z m-872 2
c3 -5 -1 -10 -10 -10 -9 0 -13 5 -10 10 3 6 8 10 10 10 2 0 7 -4 10 -10z m685
-8 c0 -10 -5 -23 -12 -30 -9 -9 -9 -12 -1 -12 7 0 12 -16 11 -40 0 -32 -4 -40
-18 -40 -19 0 -19 -3 -10 133 1 16 30 6 30 -11z m-730 -2 c0 -5 -2 -10 -4 -10
-3 0 -8 5 -11 10 -3 6 -1 10 4 10 6 0 11 -4 11 -10z m310 -20 c-8 -5 -19 -10
-25 -10 -5 0 -3 5 5 10 8 5 20 10 25 10 6 0 3 -5 -5 -10z m-140 -10 c0 -5 -4
-10 -10 -10 -5 0 -10 5 -10 10 0 6 5 10 10 10 6 0 10 -4 10 -10z m630 -39 c0
-38 -11 -58 -28 -47 -4 2 -6 23 -4 45 5 56 32 57 32 2z m-403 23 c-3 -3 -12
-4 -19 -1 -8 3 -5 6 6 6 11 1 17 -2 13 -5z m-92 -14 c3 -5 1 -10 -4 -10 -6 0
-11 5 -11 10 0 6 2 10 4 10 3 0 8 -4 11 -10z m542 -67 c-3 -10 -5 -4 -5 12 0
17 2 24 5 18 2 -7 2 -21 0 -30z m-447 -13 c0 -5 -2 -10 -4 -10 -3 0 -8 5 -11
10 -3 6 -1 10 4 10 6 0 11 -4 11 -10z m-510 -20 c0 -5 -4 -10 -10 -10 -5 0
-10 5 -10 10 0 6 5 10 10 10 6 0 10 -4 10 -10z m417 4 c-3 -3 -12 -4 -19 -1
-8 3 -5 6 6 6 11 1 17 -2 13 -5z m23 -83 c0 -9 -41 -23 -48 -16 -2 2 -1 8 3
14 8 13 45 15 45 2z m347 -58 c-2 -16 -4 -5 -4 22 0 28 2 40 4 28 2 -13 2 -35
0 -50z m-47 -19 c0 -8 -4 -12 -10 -9 -5 3 -10 10 -10 16 0 5 5 9 10 9 6 0 10
-7 10 -16z m-1100 -19 c0 -8 -4 -15 -10 -15 -5 0 -10 7 -10 15 0 8 5 15 10 15
6 0 10 -7 10 -15z m40 -5 c0 -11 -4 -20 -10 -20 -5 0 -10 9 -10 20 0 11 5 20
10 20 6 0 10 -9 10 -20z m750 10 c0 -5 -5 -10 -11 -10 -5 0 -7 5 -4 10 3 6 8
10 11 10 2 0 4 -4 4 -10z m-87 -27 c3 -5 8 -27 12 -50 6 -39 5 -43 -14 -43
-19 0 -21 6 -21 50 0 44 11 64 23 43z m397 -38 c0 -25 -4 -45 -10 -45 -5 0
-10 20 -10 45 0 25 5 45 10 45 6 0 10 -20 10 -45z m-213 29 c-3 -3 -12 -4 -19
-1 -8 3 -5 6 6 6 11 1 17 -2 13 -5z m-1267 -44 c0 -5 -4 -10 -10 -10 -5 0 -10
5 -10 10 0 6 5 10 10 10 6 0 10 -4 10 -10z m40 -12 c0 -16 -3 -19 -11 -11 -6
6 -8 16 -5 22 11 17 16 13 16 -11z m353 5 c22 -3 37 -11 37 -20 0 -9 -7 -12
-25 -7 -20 5 -25 2 -26 -12 0 -17 -1 -17 -8 1 -5 13 -20 22 -41 25 -18 3 -35
11 -38 19 -4 11 2 13 29 7 19 -4 51 -10 72 -13z m777 -9 c0 -2 -9 -4 -21 -4
-11 0 -18 4 -14 10 5 8 35 3 35 -6z m190 -14 c0 -5 -5 -10 -11 -10 -5 0 -7 5
-4 10 3 6 8 10 11 10 2 0 4 -4 4 -10z m-470 -40 c0 -5 -5 -10 -11 -10 -5 0 -7
5 -4 10 3 6 8 10 11 10 2 0 4 -4 4 -10z m-434 -16 c-3 -9 -6 -22 -6 -30 0 -8
-11 -19 -25 -24 -14 -5 -25 -17 -25 -25 0 -22 -41 -36 -60 -20 -8 6 -23 15
-32 18 -10 4 -18 14 -18 23 0 9 8 26 18 37 13 17 26 21 54 19 21 -2 46 1 55 7
27 16 46 13 39 -5z m614 1 c0 -8 -4 -15 -10 -15 -5 0 -10 7 -10 15 0 8 5 15
10 15 6 0 10 -7 10 -15z m30 -7 c0 -16 -3 -19 -11 -11 -6 6 -8 16 -5 22 11 17
16 13 16 -11z m380 12 c0 -5 -4 -10 -10 -10 -5 0 -10 5 -10 10 0 6 5 10 10 10
6 0 10 -4 10 -10z m-1205 -9 c3 -5 1 -12 -5 -16 -5 -3 -10 1 -10 9 0 18 6 21
15 7z m-35 -56 c0 -19 -5 -35 -10 -35 -6 0 -20 -11 -32 -25 -28 -33 -43 -32
-58 4 -7 19 -17 28 -26 24 -8 -3 -14 1 -14 10 0 11 14 18 45 22 24 4 52 13 62
21 27 21 33 17 33 -21z m576 22 c8 3 14 -1 14 -9 0 -23 -11 -28 -34 -15 -11 7
-23 13 -25 14 -1 1 0 7 4 13 5 8 11 8 17 2 6 -6 17 -8 24 -5z m274 -31 c31 0
39 -5 43 -22 4 -20 0 -22 -40 -21 -23 1 -43 4 -43 7 0 3 -14 11 -31 17 -36 14
-30 36 7 27 14 -4 43 -7 64 -8z m-590 -53 c0 -25 -2 -44 -4 -42 -8 10 -13 89
-5 89 5 0 9 -21 9 -47z m735 -50 c-4 -26 -2 -43 4 -43 9 0 8 -38 -3 -168 -2
-23 -9 -49 -16 -57 -6 -8 -9 -19 -6 -24 4 -5 2 -12 -3 -15 -5 -3 -12 1 -15 10
-3 9 -15 14 -28 12 -30 -4 -34 18 -3 26 36 9 36 56 1 56 -42 0 -42 34 -1 41
11 3 21 14 23 26 3 17 -3 22 -25 25 -35 4 -37 30 -3 38 31 7 37 55 7 55 -10 0
-23 8 -28 18 -13 23 -26 22 -34 -4 -4 -11 -18 -24 -31 -29 -32 -13 -33 -50 -1
-50 13 0 26 -3 30 -6 11 -11 -5 -34 -24 -34 -12 0 -23 -10 -29 -26 -14 -35
-14 -34 21 -34 l31 0 -31 -36 c-34 -39 -32 -59 5 -50 19 5 24 2 24 -14 0 -14
-7 -20 -21 -20 -12 0 -23 -8 -26 -20 -3 -12 -14 -20 -25 -20 -16 0 -19 5 -15
21 3 12 1 33 -5 48 -12 29 -11 70 3 88 7 7 6 14 -1 18 -13 8 -13 58 0 71 6 6
6 23 -2 47 -16 53 3 88 43 80 26 -5 50 1 114 27 41 17 50 17 63 1 9 -11 11
-30 7 -58z m165 52 c0 -16 -9 -28 -27 -37 -17 -8 -28 -21 -28 -33 0 -14 8 -21
28 -23 34 -4 35 -19 3 -32 -44 -16 -55 -70 -15 -70 10 0 19 -4 19 -10 0 -5 -7
-10 -15 -10 -8 0 -22 -15 -32 -32 l-17 -33 -9 35 c-13 48 -18 241 -8 254 5 6
30 12 55 13 42 1 46 0 46 -22z m-1120 5 c0 -5 -4 -10 -10 -10 -5 0 -10 5 -10
10 0 6 5 10 10 10 6 0 10 -4 10 -10z m543 -7 c14 -8 7 -35 -8 -30 -8 4 -17 2
-21 -4 -4 -6 -10 -5 -17 5 -7 8 -21 16 -31 18 -11 1 -21 9 -24 16 -3 11 6 12
44 7 27 -4 52 -9 57 -12z m-373 -13 c0 -12 -9 -22 -23 -25 -12 -4 -27 -16 -32
-28 -12 -27 -45 -35 -57 -13 -5 9 -18 16 -29 16 -15 0 -20 6 -17 23 3 19 11
23 56 28 29 4 56 10 59 13 15 14 43 5 43 -14z m501 -43 c4 -5 5 -29 4 -53 -2
-25 0 -58 5 -74 6 -20 4 -32 -5 -40 -11 -9 -11 -18 -3 -42 8 -22 8 -36 0 -48
-7 -12 -7 -21 0 -28 14 -14 6 -53 -15 -66 -14 -9 -21 -7 -31 7 -7 9 -23 17
-35 17 -34 0 -23 34 12 38 36 4 33 32 -6 50 -35 17 -34 31 3 39 17 3 30 9 30
13 0 24 -15 40 -37 40 -35 0 -27 34 10 38 15 2 27 7 27 12 0 23 -14 40 -35 40
-15 0 -25 8 -30 23 -6 22 -7 21 -17 -5 -5 -16 -16 -28 -23 -28 -18 0 -50 -50
-33 -51 7 -1 22 -2 32 -3 29 -2 31 -25 2 -35 -32 -13 -53 -49 -33 -57 8 -3 20
-4 27 -2 24 5 21 -27 -2 -37 -30 -13 -32 -51 -2 -47 33 4 38 -25 6 -40 -36
-18 -40 -44 -8 -52 33 -8 33 -24 1 -36 -14 -5 -25 -14 -25 -19 0 -5 -3 -17 -7
-27 -5 -14 -2 -16 21 -12 31 6 46 -9 19 -19 -10 -3 -26 -13 -36 -21 -9 -8 -19
-13 -21 -11 -3 2 -10 50 -16 106 -8 77 -8 108 0 124 7 12 9 37 6 58 -18 98
-18 108 -2 124 21 21 20 57 -1 72 -27 20 0 44 49 43 22 0 44 4 48 8 12 12 113
13 121 1z m-454 -39 c-3 -7 -5 -2 -5 12 0 14 2 19 5 13 2 -7 2 -19 0 -25z
m213 22 c0 -5 -4 -10 -10 -10 -5 0 -10 5 -10 10 0 6 5 10 10 10 6 0 10 -4 10
-10z m567 -6 c-3 -3 -12 -4 -19 -1 -8 3 -5 6 6 6 11 1 17 -2 13 -5z m-1002
-14 c3 -5 1 -10 -4 -10 -6 0 -11 5 -11 10 0 6 2 10 4 10 3 0 8 -4 11 -10z
m401 -155 c0 -88 2 -164 4 -170 1 -5 1 -12 0 -15 -1 -3 -3 -36 -5 -75 -3 -93
-4 -95 -12 -95 -5 0 -17 8 -28 16 -19 14 -19 16 -2 28 22 17 22 34 0 59 -17
18 -17 19 1 32 18 14 17 24 -6 58 -11 15 -10 20 5 28 21 12 22 27 0 51 -15 17
-15 19 0 36 21 23 21 31 0 55 -17 18 -17 19 0 32 21 15 22 38 2 55 -16 13 -20
51 -8 64 4 4 16 6 28 4 19 -3 20 -10 21 -163z m-226 130 c0 -9 -11 -20 -25
-25 -14 -5 -25 -16 -25 -24 0 -9 -10 -21 -22 -27 -19 -10 -24 -9 -36 10 -8 11
-23 21 -34 21 -13 0 -18 6 -16 17 2 11 20 21 53 29 73 17 105 17 105 -1z
m-175 -74 c3 -5 1 -12 -5 -16 -5 -3 -10 1 -10 9 0 18 6 21 15 7z m175 -26 c0
-9 -11 -20 -24 -26 -14 -7 -27 -22 -30 -35 -7 -27 -49 -34 -63 -11 -4 8 -16
17 -26 20 -35 13 -15 41 38 53 73 17 105 17 105 -1z m-170 -86 c0 -5 -4 -9
-10 -9 -5 0 -10 7 -10 16 0 8 5 12 10 9 6 -3 10 -10 10 -16z m815 -119 c3 -5
-1 -10 -9 -10 -9 0 -25 -9 -37 -21 -23 -23 -24 -23 -33 8 -7 22 -4 23 61 32 6
0 15 -3 18 -9z m-147 -33 c4 -34 -21 -46 -48 -22 -10 9 -24 14 -29 10 -6 -3
-11 0 -11 9 0 15 44 36 70 33 8 -1 16 -14 18 -30z m-451 -44 c-3 -10 -5 -2 -5
17 0 19 2 27 5 18 2 -10 2 -26 0 -35z m0 -55 c-3 -7 -5 -2 -5 12 0 14 2 19 5
13 2 -7 2 -19 0 -25z m416 15 c3 -5 -8 -9 -24 -10 -16 -1 -29 2 -29 7 0 12 47
13 53 3z m-583 -177 c0 -11 -19 -15 -25 -6 -3 5 1 10 9 10 9 0 16 -2 16 -4z"/>
<path d="M2955 4061 c-3 -5 -1 -12 5 -16 5 -3 10 1 10 9 0 18 -6 21 -15 7z"/>
<path d="M3774 8923 c-25 -5 -71 -50 -61 -60 4 -3 13 1 20 9 9 13 35 17 107
20 75 3 95 7 95 18 0 19 -61 26 -81 9 -11 -9 -18 -9 -26 -1 -12 12 -16 13 -54
5z"/>
<path d="M7421 8589 c-26 -47 -65 -67 -172 -89 -593 -120 -986 -482 -1320
-1214 l-49 -109 25 -42 c18 -32 23 -51 19 -74 -4 -17 -10 -28 -15 -25 -5 3 -9
-10 -10 -28 -4 -108 -16 -164 -40 -187 -11 -10 -22 -28 -24 -41 -5 -28 -15
-39 -15 -17 0 10 -4 17 -9 17 -5 0 -12 -39 -16 -87 -3 -49 -8 -95 -9 -103 -4
-16 -9 84 -7 113 1 9 -3 17 -8 17 -6 0 -11 -17 -11 -37 -2 -129 -27 -364 -40
-377 -6 -6 -8 39 -6 117 3 73 0 127 -5 127 -5 0 -9 -12 -10 -27 0 -16 -2 -50
-4 -78 -3 -27 -7 -83 -11 -122 -3 -40 -9 -75 -13 -78 -8 -4 -5 181 3 218 2 9
0 17 -5 17 -5 0 -9 -12 -10 -27 0 -16 -2 -44 -4 -63 -2 -19 -6 -66 -10 -105
-14 -152 -16 -170 -21 -175 -7 -6 5 331 12 342 3 4 0 8 -5 8 -6 0 -12 -12 -12
-27 -1 -16 -3 -41 -4 -58 -6 -54 -25 -249 -31 -310 -2 -33 -6 -73 -8 -90 -1
-16 -3 -50 -4 -74 -1 -29 -5 -42 -12 -35 -8 8 -1 169 12 294 3 31 -2 93 -7 88
-5 -5 -10 -40 -20 -143 -1 -16 -8 -102 -14 -190 -7 -88 -16 -200 -21 -250 -14
-130 -13 -155 5 -155 12 0 13 -5 7 -17 -5 -10 -15 -51 -21 -91 -9 -52 -19 -77
-32 -85 -13 -8 -19 -23 -19 -47 -1 -58 -20 -123 -40 -137 -22 -16 -29 -69 -7
-57 6 4 4 -2 -5 -13 -10 -11 -18 -30 -18 -42 0 -13 -8 -52 -17 -87 -13 -49
-21 -64 -35 -64 -24 0 -34 -27 -20 -50 8 -14 8 -21 -2 -29 -7 -6 -16 -28 -19
-48 -4 -21 -16 -44 -27 -53 -13 -10 -22 -31 -26 -58 -6 -50 -22 -98 -23 -69
-2 41 -27 7 -37 -49 -5 -32 -15 -70 -21 -84 -11 -24 -12 -24 -12 13 -1 20 -6
37 -11 37 -13 0 -15 -7 -31 -105 -7 -43 -14 -74 -17 -67 -2 7 -10 12 -17 12
-8 0 -18 -25 -26 -67 -7 -38 -15 -60 -17 -50 -5 22 -32 22 -32 0 0 -28 -32
-133 -39 -128 -4 2 -6 27 -5 54 4 74 -11 62 -26 -21 -19 -107 -31 -127 -27
-45 2 37 -1 67 -5 67 -4 0 -8 -11 -8 -25 0 -13 -7 -59 -17 -100 -17 -81 -35
-84 -28 -5 4 38 2 35 -11 -20 -29 -122 -39 -153 -49 -152 -5 1 -12 18 -15 39
l-6 38 -7 -45 c-5 -25 -14 -58 -22 -75 l-13 -30 -2 35 c-1 32 -3 29 -22 -30
-16 -52 -22 -61 -28 -45 l-8 20 -7 -20 c-3 -11 -11 -28 -16 -37 -5 -10 -9 -23
-9 -30 0 -7 -4 -19 -9 -27 -7 -12 -13 -12 -24 -3 -11 10 -16 4 -26 -30 -9 -29
-15 -37 -21 -28 -6 10 -13 3 -24 -25 -16 -38 -181 -209 -260 -270 -21 -16 -47
-38 -56 -48 -9 -9 -59 -48 -110 -86 -72 -53 -112 -75 -179 -96 -47 -15 -126
-41 -175 -57 -48 -16 -111 -30 -140 -30 -35 -1 -83 -15 -153 -43 l-102 -42
277 -6 c152 -4 1234 -7 2405 -7 l2127 0 0 2419 0 2419 -62 7 c-202 23 -397
159 -481 337 -44 92 -54 131 -61 244 -7 103 3 169 39 257 13 33 22 63 20 65
-2 2 -41 6 -87 9 -80 5 -84 5 -97 -18z m-1745 -2396 c-10 -10 -19 5 -10 18 6
11 8 11 12 0 2 -7 1 -15 -2 -18z m-9 -45 c-3 -8 -6 -5 -6 6 -1 11 2 17 5 13 3
-3 4 -12 1 -19z m-40 -70 c-3 -8 -6 -5 -6 6 -1 11 2 17 5 13 3 -3 4 -12 1 -19z
m-65 -274 c-2 -55 -12 -54 -12 1 0 27 3 45 7 42 3 -4 6 -23 5 -43z m-10 -96
c-10 -22 -11 -21 -11 12 -1 26 2 31 11 22 8 -8 8 -17 0 -34z"/>
<path d="M2330 7460 c0 -6 4 -10 9 -10 5 0 17 -3 27 -7 11 -4 15 -2 12 7 -5
16 -48 24 -48 10z"/>
<path d="M2311 7212 c-14 -25 -14 -42 -1 -42 15 0 29 35 20 49 -6 11 -10 9
-19 -7z"/>
<path d="M2305 7119 c-9 -29 4 -38 21 -15 18 25 18 36 0 36 -8 0 -18 -9 -21
-21z"/>
<path d="M5810 7130 c0 -5 5 -10 11 -10 5 0 7 5 4 10 -3 6 -8 10 -11 10 -2 0
-4 -4 -4 -10z"/>
<path d="M5811 7084 c0 -11 3 -14 6 -6 3 7 2 16 -1 19 -3 4 -6 -2 -5 -13z"/>
<path d="M5849 7098 c-7 -27 -6 -68 1 -68 6 0 10 16 10 35 0 19 -2 35 -5 35
-3 0 -5 -1 -6 -2z"/>
<path d="M5890 7064 c0 -8 5 -12 10 -9 6 4 8 11 5 16 -9 14 -15 11 -15 -7z"/>
<path d="M2305 7039 c-8 -23 -1 -34 14 -24 13 8 15 45 2 45 -5 0 -13 -9 -16
-21z"/>
<path d="M5812 7030 c0 -19 2 -27 5 -17 2 9 2 25 0 35 -3 9 -5 1 -5 -18z"/>
<path d="M2312 6968 c-17 -17 -15 -38 3 -38 9 0 15 9 15 25 0 29 -1 30 -18 13z"/>
<path d="M5840 6880 c0 -5 5 -10 10 -10 6 0 10 5 10 10 0 6 -4 10 -10 10 -5 0
-10 -4 -10 -10z"/>
<path d="M5840 6840 c0 -5 5 -10 10 -10 6 0 10 5 10 10 0 6 -4 10 -10 10 -5 0
-10 -4 -10 -10z"/>
<path d="M5760 6751 c0 -6 5 -13 10 -16 6 -3 10 1 10 9 0 9 -4 16 -10 16 -5 0
-10 -4 -10 -9z"/>
<path d="M5711 6674 c0 -11 3 -14 6 -6 3 7 2 16 -1 19 -3 4 -6 -2 -5 -13z"/>
<path d="M5671 6604 c0 -11 3 -14 6 -6 3 7 2 16 -1 19 -3 4 -6 -2 -5 -13z"/>
<path d="M5706 6591 c-4 -7 -5 -15 -2 -18 9 -9 19 4 14 18 -4 11 -6 11 -12 0z"/>
<path d="M5671 6564 c0 -11 3 -14 6 -6 3 7 2 16 -1 19 -3 4 -6 -2 -5 -13z"/>
<path d="M5667 6523 c-4 -3 -7 -11 -7 -17 0 -6 5 -5 12 2 6 6 9 14 7 17 -3 3
-9 2 -12 -2z"/>
<path d="M5620 6490 c0 -5 5 -10 10 -10 6 0 10 5 10 10 0 6 -4 10 -10 10 -5 0
-10 -4 -10 -10z"/>
<path d="M5507 6025 c-12 -74 -15 -110 -43 -452 -5 -60 -3 -83 5 -83 17 0 19
12 25 140 3 63 10 179 16 257 11 140 10 216 -3 138z"/>
<path d="M2752 5745 c6 -14 13 -23 16 -21 7 7 -9 46 -18 46 -5 0 -4 -11 2 -25z"/>
<path d="M2772 5670 c0 -14 2 -19 5 -12 2 6 2 18 0 25 -3 6 -5 1 -5 -13z"/>
<path d="M2780 5576 c0 -9 5 -16 10 -16 6 0 10 4 10 9 0 6 -4 13 -10 16 -5 3
-10 -1 -10 -9z"/>
<path d="M2757 5514 c-4 -4 -7 -14 -7 -23 0 -11 3 -12 11 -4 6 6 10 16 7 23
-2 6 -7 8 -11 4z"/>
<path d="M5430 5479 c0 -5 5 -7 10 -4 6 3 10 8 10 11 0 2 -4 4 -10 4 -5 0 -10
-5 -10 -11z"/>
<path d="M2750 5461 c0 -6 4 -13 10 -16 6 -3 7 1 4 9 -7 18 -14 21 -14 7z"/>
<path d="M5463 5435 c-3 -9 -3 -18 0 -21 9 -9 27 6 27 22 0 19 -19 18 -27 -1z"/>
<path d="M5460 5360 c0 -11 4 -20 9 -20 5 0 11 9 14 20 3 13 0 20 -9 20 -8 0
-14 -9 -14 -20z"/>
<path d="M5417 5343 c-4 -3 -7 -11 -7 -17 0 -6 5 -5 12 2 6 6 9 14 7 17 -3 3
-9 2 -12 -2z"/>
<path d="M5410 5261 c0 -25 6 -27 13 -6 4 8 2 17 -3 20 -6 4 -10 -3 -10 -14z"/>
<path d="M5408 5204 c-5 -4 -8 -16 -8 -28 0 -14 3 -17 11 -9 6 6 9 19 7 28 -1
9 -6 13 -10 9z"/>
<path d="M5341 5154 c0 -11 3 -14 6 -6 3 7 2 16 -1 19 -3 4 -6 -2 -5 -13z"/>
<path d="M5331 5074 c0 -11 3 -14 6 -6 3 7 2 16 -1 19 -3 4 -6 -2 -5 -13z"/>
<path d="M5320 4999 c0 -11 5 -17 10 -14 6 3 10 13 10 21 0 8 -4 14 -10 14 -5
0 -10 -9 -10 -21z"/>
<path d="M3379 4968 c5 -24 12 -33 26 -33 15 0 21 8 23 33 3 30 1 32 -26 32
-28 0 -29 -2 -23 -32z"/>
<path d="M5317 4943 c-11 -10 -8 -43 3 -43 6 0 10 11 10 25 0 26 -2 29 -13 18z"/>
<path d="M5271 4904 c0 -11 3 -14 6 -6 3 7 2 16 -1 19 -3 4 -6 -2 -5 -13z"/>
<path d="M5262 4820 c0 -14 2 -19 5 -12 2 6 2 18 0 25 -3 6 -5 1 -5 -13z"/>
<path d="M5250 4740 c0 -11 5 -20 10 -20 6 0 10 9 10 20 0 11 -4 20 -10 20 -5
0 -10 -9 -10 -20z"/>
<path d="M5197 4646 c-4 -10 -5 -21 -2 -24 9 -9 17 6 13 25 -3 17 -4 17 -11
-1z"/>
<path d="M5128 4554 c-5 -4 -8 -19 -8 -33 0 -18 3 -22 11 -14 6 6 9 21 7 33
-1 12 -6 18 -10 14z"/>
<path d="M5067 4383 c-4 -3 -7 -11 -7 -17 0 -6 5 -5 12 2 6 6 9 14 7 17 -3 3
-9 2 -12 -2z"/>
<path d="M5007 4280 c-3 -11 -1 -20 4 -20 5 0 9 9 9 20 0 11 -2 20 -4 20 -2 0
-6 -9 -9 -20z"/>
<path d="M3429 3863 c-13 -16 -12 -17 4 -4 16 13 21 21 13 21 -2 0 -10 -8 -17
-17z"/>
<path d="M2320 3745 c0 -17 2 -18 24 -9 23 9 20 24 -4 24 -11 0 -20 -7 -20
-15z"/>
<path d="M2290 3705 c0 -8 5 -15 10 -15 6 0 10 7 10 15 0 8 -4 15 -10 15 -5 0
-10 -7 -10 -15z"/>
<path d="M2216 3495 c-3 -8 -1 -15 4 -15 6 0 10 7 10 15 0 8 -2 15 -4 15 -2 0
-6 -7 -10 -15z"/>
<path d="M3129 2461 c-68 -22 -110 -73 -89 -110 6 -13 10 -166 10 -425 0 -390
1 -406 19 -416 24 -12 161 -13 180 -1 12 8 14 52 12 248 -2 231 1 279 20 267
5 -3 95 -117 199 -254 105 -137 202 -258 217 -269 14 -12 40 -21 58 -21 75 0
87 11 277 258 100 130 192 254 204 276 l24 41 0 -262 c0 -224 2 -264 16 -277
19 -20 173 -23 192 -4 17 17 16 844 -1 874 -37 64 -55 77 -110 78 -34 0 -63
-6 -79 -16 -14 -9 -132 -158 -264 -331 -131 -173 -246 -319 -255 -325 -13 -8
-57 45 -264 319 -137 181 -253 333 -259 338 -17 14 -78 21 -107 12z"/>
<path d="M5176 2458 c-25 -7 -55 -27 -78 -52 -48 -51 -538 -831 -538 -856 0
-37 38 -50 145 -50 63 1 106 5 116 13 9 7 35 44 59 82 72 116 32 105 367 105
l293 0 37 -61 c21 -34 51 -79 66 -100 l28 -40 111 3 c86 2 113 6 120 18 7 11
-58 123 -257 440 -146 234 -282 442 -303 462 -42 42 -99 54 -166 36z m158
-420 c36 -59 66 -110 66 -113 0 -3 -69 -5 -154 -5 -93 0 -157 -4 -161 -10 -3
-5 -14 -10 -23 -10 -13 1 -12 5 9 23 14 12 36 40 49 62 13 22 46 75 73 118 44
70 51 76 62 60 7 -10 42 -66 79 -125z"/>
<path d="M2123 2440 c-138 -28 -199 -118 -188 -280 12 -163 44 -228 133 -272
45 -22 59 -23 342 -28 l295 -5 3 -36 c2 -26 -3 -42 -22 -62 l-25 -27 -350 0
c-295 0 -352 -2 -364 -15 -20 -20 -12 -172 11 -197 14 -17 46 -18 392 -18 418
0 449 4 517 63 20 17 42 46 49 64 19 45 18 225 -1 291 -18 61 -85 137 -135
154 -23 7 -138 13 -325 15 l-290 3 -3 24 c-2 13 4 40 12 60 l15 36 133 0 c88
0 141 5 158 13 24 12 25 16 24 106 -2 123 2 121 -189 120 -82 -1 -169 -5 -192
-9z"/>
<path d="M6005 2426 c-27 -27 -31 -41 -15 -51 6 -4 10 -158 10 -430 0 -409 1
-425 19 -435 29 -15 186 -13 199 3 7 8 13 68 14 143 3 123 4 129 24 128 18 0
380 -218 443 -266 21 -16 44 -18 185 -18 129 0 166 3 182 15 19 15 19 15 -4
34 -23 20 -333 202 -404 237 l-37 19 122 0 c174 0 252 30 308 121 43 70 36
283 -12 380 -27 53 -89 107 -144 125 -29 8 -159 13 -452 16 l-412 5 -26 -26z
m819 -225 c28 -23 13 -138 -23 -174 -8 -8 -63 -13 -174 -15 -89 -1 -215 -3
-280 -5 l-117 -2 0 89 c0 137 -20 129 306 124 207 -3 276 -7 288 -17z"/>
<path d="M7154 2440 c-30 -12 -32 -24 -24 -119 6 -65 12 -87 26 -98 15 -11 54
-14 184 -11 l165 3 0 -343 c0 -404 -11 -372 124 -372 47 0 92 4 100 9 11 7 13
67 12 334 -2 220 1 333 9 347 10 19 20 20 169 20 204 0 203 -1 194 119 -10
132 35 121 -490 120 -247 0 -457 -4 -469 -9z"/>
<path d="M2990 1055 c0 -78 3 -95 15 -95 12 0 15 13 15 60 0 33 3 60 6 60 3 0
36 -27 72 -60 37 -33 74 -59 82 -58 12 3 16 22 18 91 3 82 2 87 -18 87 -18 0
-20 -6 -20 -61 l0 -61 -72 66 c-40 36 -78 66 -85 66 -10 0 -13 -24 -13 -95z"/>
<path d="M4900 1055 c0 -78 3 -95 15 -95 12 0 15 13 15 60 0 33 4 60 10 60 5
0 38 -27 73 -60 90 -84 97 -82 97 30 0 73 -3 90 -15 90 -12 0 -15 -13 -15 -60
0 -33 -4 -60 -8 -60 -4 0 -37 29 -72 65 -91 92 -100 89 -100 -30z"/>
<path d="M5717 1143 c-4 -3 -7 -46 -7 -95 0 -81 2 -88 20 -88 18 0 20 7 20 67
l0 67 68 -67 c93 -92 102 -90 102 23 0 73 -3 90 -15 90 -12 0 -15 -13 -15 -60
0 -33 -4 -60 -8 -60 -4 0 -37 29 -72 65 -62 62 -79 73 -93 58z"/>
<path d="M2527 1133 c-4 -3 -7 -39 -7 -79 0 -89 6 -94 114 -94 61 0 76 3 76
15 0 11 -13 15 -54 15 -82 0 -106 12 -106 54 0 62 5 66 86 66 59 0 74 3 74 15
0 12 -16 15 -88 15 -49 0 -92 -3 -95 -7z"/>
<path d="M2750 1121 c-5 -11 -10 -42 -10 -70 0 -73 21 -91 105 -91 84 0 105
18 105 91 0 83 -7 89 -105 89 -73 0 -86 -3 -95 -19z m155 -66 c0 -49 -1 -50
-35 -58 -22 -6 -45 -5 -62 2 -25 9 -28 16 -28 54 0 24 3 47 7 51 4 4 32 6 63
4 l55 -3 0 -50z"/>
<path d="M3236 1124 c-10 -25 -7 -59 6 -72 7 -7 39 -12 75 -12 49 0 65 -4 70
-16 9 -24 -15 -34 -89 -34 -54 0 -68 -3 -68 -15 0 -12 16 -15 84 -15 92 0 116
11 116 55 0 41 -25 55 -96 55 -57 0 -64 2 -64 20 0 16 7 20 35 20 24 0 35 5
35 15 0 22 -95 21 -104 -1z"/>
<path d="M3430 1125 c0 -10 11 -15 35 -15 l35 0 0 -75 c0 -68 2 -75 20 -75 18
0 20 7 20 75 l0 75 40 0 c29 0 40 4 40 15 0 12 -17 15 -95 15 -78 0 -95 -3
-95 -15z"/>
<path d="M3650 1050 c0 -73 3 -90 15 -90 10 0 15 10 15 30 0 17 4 30 10 30 5
0 32 -13 58 -30 30 -18 63 -30 83 -30 l34 1 -47 27 c-27 15 -48 30 -48 35 0 4
15 7 33 7 41 0 57 15 57 55 0 48 -14 55 -117 55 l-93 0 0 -90z m168 36 c5 -26
-15 -36 -76 -36 -55 0 -71 13 -58 45 4 13 19 15 68 13 52 -2 63 -6 66 -22z"/>
<path d="M3892 1064 c4 -93 15 -104 103 -104 92 0 105 13 105 106 0 67 -2 74
-20 74 -17 0 -19 -8 -22 -67 l-3 -68 -35 -8 c-22 -6 -45 -5 -62 2 -27 10 -28
14 -28 76 0 59 -2 65 -21 65 -20 0 -21 -4 -17 -76z"/>
<path d="M4152 1128 c-7 -7 -12 -40 -12 -80 0 -64 2 -69 26 -78 14 -6 57 -10
95 -10 55 0 69 3 69 15 0 11 -13 15 -52 15 -29 0 -63 3 -75 6 -25 7 -37 44
-28 85 7 29 7 29 81 29 59 0 74 3 74 15 0 12 -16 15 -83 15 -51 0 -88 -5 -95
-12z"/>
<path d="M4360 1125 c0 -10 11 -15 35 -15 l35 0 0 -75 c0 -68 2 -75 20 -75 18
0 20 7 20 75 l0 75 40 0 c29 0 40 4 40 15 0 12 -17 15 -95 15 -78 0 -95 -3
-95 -15z"/>
<path d="M4580 1050 c0 -83 1 -90 20 -90 19 0 20 7 20 90 0 83 -1 90 -20 90
-19 0 -20 -7 -20 -90z"/>
<path d="M4667 1133 c-4 -3 -7 -39 -7 -80 0 -71 1 -74 28 -84 38 -15 151 -7
163 12 13 21 11 133 -3 147 -13 13 -169 17 -181 5z m151 -80 l3 -52 -35 -6
c-52 -10 -90 6 -94 39 -2 16 -1 39 3 53 5 22 9 24 63 21 l57 -3 3 -52z"/>
<path d="M5284 1125 c-4 -8 -4 -26 -2 -40 3 -14 -1 -30 -8 -36 -8 -6 -14 -25
-14 -40 0 -40 26 -48 140 -47 76 2 89 4 75 14 -13 9 -15 20 -10 43 5 23 3 31
-8 31 -8 0 -18 -9 -23 -20 -9 -20 -9 -20 -39 0 -30 20 -31 19 21 35 11 3 14
15 12 37 l-3 33 -68 3 c-54 2 -68 0 -73 -13z m112 -16 c8 -14 -5 -26 -36 -33
-31 -8 -55 7 -47 28 7 18 72 23 83 5z m-37 -86 c41 -24 39 -33 -8 -33 -42 0
-57 11 -47 35 7 19 18 19 55 -2z"/>
<path d="M5630 1050 c0 -83 1 -90 20 -90 19 0 20 7 20 90 0 83 -1 90 -20 90
-19 0 -20 -7 -20 -90z"/>
<path d="M5950 1125 c0 -11 11 -15 40 -15 l40 0 0 -75 c0 -68 2 -75 20 -75 18
0 20 7 20 75 l0 75 35 0 c24 0 35 5 35 15 0 12 -17 15 -95 15 -78 0 -95 -3
-95 -15z"/>
<path d="M6180 1121 c-5 -11 -10 -42 -10 -70 0 -76 19 -91 120 -91 64 0 80 3
80 15 0 12 -13 15 -61 15 -65 0 -99 12 -99 35 0 12 16 15 80 15 64 0 80 3 80
15 0 12 -16 15 -81 15 -71 0 -80 2 -77 18 2 11 14 18 36 20 20 2 32 9 32 18 0
23 -87 19 -100 -5z"/>
<path d="M6400 1050 c0 -83 1 -90 20 -90 16 0 20 7 20 30 0 17 4 30 8 30 4 0
30 -14 56 -31 33 -21 58 -29 80 -27 l31 3 -42 23 c-24 12 -43 27 -43 32 0 5
17 10 38 12 l37 3 0 50 0 50 -102 3 -103 3 0 -91z m176 45 c12 -30 -16 -46
-75 -43 -53 3 -56 5 -59 31 l-3 27 66 0 c49 0 67 -4 71 -15z"/>
<path d="M6650 1050 c0 -83 1 -90 20 -90 19 0 20 7 20 90 0 83 -1 90 -20 90
-19 0 -20 -7 -20 -90z"/>
<path d="M6742 1128 c-14 -14 -16 -126 -2 -148 13 -21 148 -27 174 -7 23 17
33 99 17 140 -10 26 -12 27 -94 27 -51 0 -88 -5 -95 -12z m156 -71 c3 -43 1
-48 -25 -58 -15 -5 -44 -7 -65 -4 -38 7 -38 7 -38 54 0 26 3 51 7 55 4 4 32 6
63 4 l55 -3 3 -48z"/>
<path d="M6980 1050 c0 -73 3 -90 15 -90 10 0 15 10 15 30 0 17 4 30 10 30 5
0 31 -13 57 -30 30 -19 60 -30 82 -30 l36 1 -47 27 c-27 15 -48 30 -48 35 0 4
15 7 33 7 39 0 57 15 57 48 0 55 -13 62 -115 62 l-95 0 0 -90z m168 33 c4 -27
-22 -36 -89 -31 -40 3 -44 6 -47 31 l-3 28 68 -3 c62 -3 68 -5 71 -25z"/>
<path d="M7224 1126 c-3 -8 -4 -29 -2 -48 l3 -33 73 -3 c55 -2 74 -7 79 -18 9
-24 -16 -34 -89 -34 -54 0 -68 -3 -68 -15 0 -12 15 -15 73 -15 109 0 117 4
117 56 0 49 -4 52 -100 56 -41 2 -55 7 -55 18 0 10 12 16 38 18 24 2 37 8 37
18 0 20 -98 20 -106 0z"/>
</g>
</svg>
